<mxfile host="app.diagrams.net" modified="2024-06-19T12:43:01.102Z" agent="Mozilla/5.0 (Macintosh; Intel Mac OS X 10_15_7) AppleWebKit/537.36 (KHTML, like Gecko) Chrome/125.0.0.0 Safari/537.36" etag="xK6j26p4bWLMWyCv7LxF" version="24.5.5" type="github">
  <diagram id="_iA2iY5-yiGGR4RjOuDj" name="第 1 页">
    <mxGraphModel dx="1592" dy="761" grid="1" gridSize="10" guides="1" tooltips="1" connect="1" arrows="1" fold="1" page="1" pageScale="1" pageWidth="850" pageHeight="1100" math="0" shadow="0">
      <root>
        <mxCell id="0" />
        <mxCell id="1" parent="0" />
        <mxCell id="CSbPJWY7NKhsalRFJAfI-1" value="" style="rounded=0;whiteSpace=wrap;html=1;" parent="1" vertex="1">
          <mxGeometry x="121" y="130" width="99" height="730" as="geometry" />
        </mxCell>
        <mxCell id="CSbPJWY7NKhsalRFJAfI-4" value="" style="endArrow=classic;html=1;rounded=0;entryX=-0.041;entryY=0.161;entryDx=0;entryDy=0;entryPerimeter=0;" parent="1" target="e2gjy9H0XDeadhWA6tdg-10" edge="1">
          <mxGeometry width="50" height="50" relative="1" as="geometry">
            <mxPoint x="220" y="190" as="sourcePoint" />
            <mxPoint x="530" y="240" as="targetPoint" />
          </mxGeometry>
        </mxCell>
        <mxCell id="CSbPJWY7NKhsalRFJAfI-5" value="request" style="edgeLabel;html=1;align=center;verticalAlign=middle;resizable=0;points=[];" parent="CSbPJWY7NKhsalRFJAfI-4" vertex="1" connectable="0">
          <mxGeometry x="-0.0497" y="4" relative="1" as="geometry">
            <mxPoint as="offset" />
          </mxGeometry>
        </mxCell>
        <mxCell id="CSbPJWY7NKhsalRFJAfI-14" value="" style="endArrow=classic;html=1;rounded=0;entryX=1.01;entryY=0.606;entryDx=0;entryDy=0;entryPerimeter=0;exitX=-0.017;exitY=0.326;exitDx=0;exitDy=0;exitPerimeter=0;" parent="1" source="e2gjy9H0XDeadhWA6tdg-10" edge="1">
          <mxGeometry width="50" height="50" relative="1" as="geometry">
            <mxPoint x="530" y="360" as="sourcePoint" />
            <mxPoint x="221" y="423" as="targetPoint" />
          </mxGeometry>
        </mxCell>
        <mxCell id="CSbPJWY7NKhsalRFJAfI-15" value="Response" style="edgeLabel;html=1;align=center;verticalAlign=middle;resizable=0;points=[];" parent="CSbPJWY7NKhsalRFJAfI-14" vertex="1" connectable="0">
          <mxGeometry x="0.037" relative="1" as="geometry">
            <mxPoint as="offset" />
          </mxGeometry>
        </mxCell>
        <mxCell id="bvm6M7adbp71QpQFMnHM-2" value="Web Browser" style="text;html=1;align=center;verticalAlign=middle;resizable=0;points=[];autosize=1;strokeColor=none;fillColor=none;" parent="1" vertex="1">
          <mxGeometry x="121" y="100" width="100" height="30" as="geometry" />
        </mxCell>
        <mxCell id="bvm6M7adbp71QpQFMnHM-8" value="User" style="text;html=1;align=center;verticalAlign=middle;whiteSpace=wrap;rounded=0;" parent="1" vertex="1">
          <mxGeometry x="141" y="180" width="60" height="30" as="geometry" />
        </mxCell>
        <mxCell id="e2gjy9H0XDeadhWA6tdg-10" value="" style="rounded=0;whiteSpace=wrap;html=1;" parent="1" vertex="1">
          <mxGeometry x="470" y="130" width="100" height="730" as="geometry" />
        </mxCell>
        <mxCell id="e2gjy9H0XDeadhWA6tdg-11" value="S&lt;span style=&quot;background-color: initial;&quot;&gt;erver&lt;/span&gt;" style="text;html=1;align=center;verticalAlign=middle;resizable=0;points=[];autosize=1;strokeColor=none;fillColor=none;" parent="1" vertex="1">
          <mxGeometry x="482" y="100" width="60" height="30" as="geometry" />
        </mxCell>
        <mxCell id="e2gjy9H0XDeadhWA6tdg-52" style="edgeStyle=orthogonalEdgeStyle;rounded=0;orthogonalLoop=1;jettySize=auto;html=1;" parent="1" edge="1">
          <mxGeometry relative="1" as="geometry">
            <mxPoint x="171" y="444" as="sourcePoint" />
            <mxPoint x="171" y="474" as="targetPoint" />
          </mxGeometry>
        </mxCell>
        <mxCell id="e2gjy9H0XDeadhWA6tdg-47" value="Parse &amp;lt;head&amp;gt;" style="text;html=1;align=center;verticalAlign=middle;whiteSpace=wrap;rounded=0;" parent="1" vertex="1">
          <mxGeometry x="121" y="423" width="101" height="30" as="geometry" />
        </mxCell>
        <mxCell id="e2gjy9H0XDeadhWA6tdg-53" style="edgeStyle=orthogonalEdgeStyle;rounded=0;orthogonalLoop=1;jettySize=auto;html=1;" parent="1" source="e2gjy9H0XDeadhWA6tdg-48" edge="1">
          <mxGeometry relative="1" as="geometry">
            <mxPoint x="171" y="510" as="sourcePoint" />
            <mxPoint x="171" y="530" as="targetPoint" />
          </mxGeometry>
        </mxCell>
        <mxCell id="e2gjy9H0XDeadhWA6tdg-48" value="Fetch Resource&lt;div&gt;(Optional)&lt;/div&gt;" style="text;html=1;align=center;verticalAlign=middle;whiteSpace=wrap;rounded=0;" parent="1" vertex="1">
          <mxGeometry x="121" y="473" width="101" height="30" as="geometry" />
        </mxCell>
        <mxCell id="e2gjy9H0XDeadhWA6tdg-54" style="edgeStyle=orthogonalEdgeStyle;rounded=0;orthogonalLoop=1;jettySize=auto;html=1;exitX=0.5;exitY=1;exitDx=0;exitDy=0;" parent="1" edge="1">
          <mxGeometry relative="1" as="geometry">
            <mxPoint x="171.5" y="558" as="sourcePoint" />
            <mxPoint x="171.55555555555543" y="578" as="targetPoint" />
            <Array as="points">
              <mxPoint x="171" y="548" />
              <mxPoint x="172" y="548" />
            </Array>
          </mxGeometry>
        </mxCell>
        <mxCell id="e2gjy9H0XDeadhWA6tdg-49" value="Parse &amp;lt;body&amp;gt;" style="text;html=1;align=center;verticalAlign=middle;whiteSpace=wrap;rounded=0;" parent="1" vertex="1">
          <mxGeometry x="121" y="523" width="101" height="30" as="geometry" />
        </mxCell>
        <mxCell id="e2gjy9H0XDeadhWA6tdg-55" style="edgeStyle=orthogonalEdgeStyle;rounded=0;orthogonalLoop=1;jettySize=auto;html=1;" parent="1" source="e2gjy9H0XDeadhWA6tdg-50" edge="1">
          <mxGeometry relative="1" as="geometry">
            <mxPoint x="171.5" y="633" as="targetPoint" />
          </mxGeometry>
        </mxCell>
        <mxCell id="e2gjy9H0XDeadhWA6tdg-50" value="Render HTML" style="text;html=1;align=center;verticalAlign=middle;whiteSpace=wrap;rounded=0;" parent="1" vertex="1">
          <mxGeometry x="121" y="573" width="101" height="30" as="geometry" />
        </mxCell>
        <mxCell id="e2gjy9H0XDeadhWA6tdg-56" value="" style="shape=flexArrow;endArrow=classic;html=1;rounded=0;" parent="1" edge="1">
          <mxGeometry width="50" height="50" relative="1" as="geometry">
            <mxPoint x="650" y="70" as="sourcePoint" />
            <mxPoint x="650" y="900" as="targetPoint" />
          </mxGeometry>
        </mxCell>
        <mxCell id="e2gjy9H0XDeadhWA6tdg-57" value="" style="endArrow=none;dashed=1;html=1;rounded=0;fillColor=#dae8fc;strokeColor=#6c8ebf;strokeWidth=2;" parent="1" edge="1">
          <mxGeometry width="50" height="50" relative="1" as="geometry">
            <mxPoint x="120" y="190" as="sourcePoint" />
            <mxPoint x="702" y="190" as="targetPoint" />
          </mxGeometry>
        </mxCell>
        <mxCell id="e2gjy9H0XDeadhWA6tdg-58" value="Navigation Start" style="text;html=1;align=center;verticalAlign=middle;whiteSpace=wrap;rounded=0;fillColor=#dae8fc;strokeColor=#6c8ebf;" parent="1" vertex="1">
          <mxGeometry x="580" y="150" width="60" height="30" as="geometry" />
        </mxCell>
        <mxCell id="e2gjy9H0XDeadhWA6tdg-59" value="" style="endArrow=none;dashed=1;html=1;rounded=0;fillColor=#dae8fc;strokeColor=#6c8ebf;strokeWidth=2;" parent="1" edge="1">
          <mxGeometry width="50" height="50" relative="1" as="geometry">
            <mxPoint x="122" y="423" as="sourcePoint" />
            <mxPoint x="702" y="423" as="targetPoint" />
          </mxGeometry>
        </mxCell>
        <mxCell id="e2gjy9H0XDeadhWA6tdg-60" value="TTFB" style="text;html=1;align=center;verticalAlign=middle;whiteSpace=wrap;rounded=0;fillColor=#dae8fc;strokeColor=#6c8ebf;" parent="1" vertex="1">
          <mxGeometry x="580" y="385" width="60" height="30" as="geometry" />
        </mxCell>
        <mxCell id="e2gjy9H0XDeadhWA6tdg-62" value="LCP" style="text;html=1;align=center;verticalAlign=middle;whiteSpace=wrap;rounded=0;fillColor=#dae8fc;strokeColor=#6c8ebf;" parent="1" vertex="1">
          <mxGeometry x="580" y="760" width="60" height="30" as="geometry" />
        </mxCell>
        <mxCell id="e2gjy9H0XDeadhWA6tdg-64" value="FCP" style="text;html=1;align=center;verticalAlign=middle;whiteSpace=wrap;rounded=0;fillColor=#dae8fc;strokeColor=#6c8ebf;" parent="1" vertex="1">
          <mxGeometry x="580" y="700" width="60" height="30" as="geometry" />
        </mxCell>
        <mxCell id="cBneQ7pibI9SkyUdJgwh-1" value="Server &lt;br&gt;&lt;br&gt;&lt;div&gt;Thinking&lt;/div&gt;&lt;div&gt;&lt;br&gt;&lt;/div&gt;&lt;div&gt;.&lt;/div&gt;&lt;div&gt;.&lt;/div&gt;&lt;div&gt;.&lt;/div&gt;" style="text;html=1;align=center;verticalAlign=middle;whiteSpace=wrap;rounded=0;" parent="1" vertex="1">
          <mxGeometry x="500.5" y="230" width="33" height="140" as="geometry" />
        </mxCell>
        <mxCell id="cBneQ7pibI9SkyUdJgwh-11" value="" style="endArrow=none;dashed=1;html=1;rounded=0;fillColor=#dae8fc;strokeColor=#6c8ebf;strokeWidth=2;" parent="1" edge="1">
          <mxGeometry width="50" height="50" relative="1" as="geometry">
            <mxPoint x="121" y="680.5" as="sourcePoint" />
            <mxPoint x="640" y="680" as="targetPoint" />
          </mxGeometry>
        </mxCell>
        <mxCell id="cBneQ7pibI9SkyUdJgwh-14" value="TBT =&amp;nbsp; Timing - LongTaskNum * 50ms" style="text;html=1;align=center;verticalAlign=middle;whiteSpace=wrap;rounded=0;fillColor=#dae8fc;strokeColor=#6c8ebf;" parent="1" vertex="1">
          <mxGeometry x="250" y="810" width="210" height="30" as="geometry" />
        </mxCell>
        <mxCell id="cBneQ7pibI9SkyUdJgwh-16" value="&lt;span style=&quot;color: rgb(27, 27, 27); font-family: Menlo, Consolas, Monaco, &amp;quot;Liberation Mono&amp;quot;, &amp;quot;Lucida Console&amp;quot;, monospace; font-size: 13.328px; text-align: start; background-color: rgb(242, 241, 241);&quot;&gt;DOMContentLoaded&lt;/span&gt;" style="text;html=1;align=center;verticalAlign=middle;whiteSpace=wrap;rounded=0;fillColor=#ffe6cc;strokeColor=#d79b00;" parent="1" vertex="1">
          <mxGeometry x="488" y="633" width="152" height="37" as="geometry" />
        </mxCell>
        <mxCell id="KkNiwnPzYMZfS_7s4qnp-6" value="" style="edgeStyle=orthogonalEdgeStyle;rounded=0;orthogonalLoop=1;jettySize=auto;html=1;" edge="1" parent="1" source="KkNiwnPzYMZfS_7s4qnp-1" target="KkNiwnPzYMZfS_7s4qnp-3">
          <mxGeometry relative="1" as="geometry" />
        </mxCell>
        <mxCell id="KkNiwnPzYMZfS_7s4qnp-1" value="Execute Module Scripts" style="text;html=1;align=center;verticalAlign=middle;whiteSpace=wrap;rounded=0;" vertex="1" parent="1">
          <mxGeometry x="120" y="633" width="101" height="30" as="geometry" />
        </mxCell>
        <mxCell id="KkNiwnPzYMZfS_7s4qnp-2" value="Default Mode: Body will Empty" style="text;html=1;align=center;verticalAlign=middle;whiteSpace=wrap;rounded=0;fillColor=#96FFF1;" vertex="1" parent="1">
          <mxGeometry x="180" y="553" width="190" height="17" as="geometry" />
        </mxCell>
        <mxCell id="KkNiwnPzYMZfS_7s4qnp-10" value="" style="edgeStyle=orthogonalEdgeStyle;rounded=0;orthogonalLoop=1;jettySize=auto;html=1;" edge="1" parent="1" source="KkNiwnPzYMZfS_7s4qnp-3" target="KkNiwnPzYMZfS_7s4qnp-9">
          <mxGeometry relative="1" as="geometry" />
        </mxCell>
        <mxCell id="KkNiwnPzYMZfS_7s4qnp-14" style="edgeStyle=orthogonalEdgeStyle;rounded=0;orthogonalLoop=1;jettySize=auto;html=1;entryX=0;entryY=0.25;entryDx=0;entryDy=0;" edge="1" parent="1" source="KkNiwnPzYMZfS_7s4qnp-3" target="KkNiwnPzYMZfS_7s4qnp-11">
          <mxGeometry relative="1" as="geometry">
            <Array as="points">
              <mxPoint x="100" y="715" />
              <mxPoint x="100" y="828" />
            </Array>
          </mxGeometry>
        </mxCell>
        <mxCell id="KkNiwnPzYMZfS_7s4qnp-3" value="Update DOM" style="text;html=1;align=center;verticalAlign=middle;whiteSpace=wrap;rounded=0;" vertex="1" parent="1">
          <mxGeometry x="120" y="700" width="101" height="30" as="geometry" />
        </mxCell>
        <mxCell id="KkNiwnPzYMZfS_7s4qnp-9" value="Fetch LCP Image&lt;div&gt;(Optional)&lt;/div&gt;" style="text;html=1;align=center;verticalAlign=middle;whiteSpace=wrap;rounded=0;" vertex="1" parent="1">
          <mxGeometry x="120" y="760" width="101" height="30" as="geometry" />
        </mxCell>
        <mxCell id="KkNiwnPzYMZfS_7s4qnp-11" value="Application Interactive" style="text;html=1;align=center;verticalAlign=middle;whiteSpace=wrap;rounded=0;" vertex="1" parent="1">
          <mxGeometry x="120" y="820" width="101" height="30" as="geometry" />
        </mxCell>
        <mxCell id="KkNiwnPzYMZfS_7s4qnp-13" value="" style="endArrow=none;dashed=1;html=1;rounded=0;fillColor=#dae8fc;strokeColor=#6c8ebf;strokeWidth=2;" edge="1" parent="1">
          <mxGeometry width="50" height="50" relative="1" as="geometry">
            <mxPoint x="120" y="740.5" as="sourcePoint" />
            <mxPoint x="639" y="740" as="targetPoint" />
          </mxGeometry>
        </mxCell>
        <mxCell id="KkNiwnPzYMZfS_7s4qnp-15" value="" style="endArrow=none;dashed=1;html=1;rounded=0;fillColor=#dae8fc;strokeColor=#6c8ebf;strokeWidth=2;" edge="1" parent="1">
          <mxGeometry width="50" height="50" relative="1" as="geometry">
            <mxPoint x="121" y="800.5" as="sourcePoint" />
            <mxPoint x="640" y="800" as="targetPoint" />
          </mxGeometry>
        </mxCell>
        <mxCell id="KkNiwnPzYMZfS_7s4qnp-16" value="" style="endArrow=none;dashed=1;html=1;rounded=0;fillColor=#dae8fc;strokeColor=#6c8ebf;strokeWidth=2;" edge="1" parent="1">
          <mxGeometry width="50" height="50" relative="1" as="geometry">
            <mxPoint x="120" y="859.5" as="sourcePoint" />
            <mxPoint x="639" y="859" as="targetPoint" />
          </mxGeometry>
        </mxCell>
        <mxCell id="KkNiwnPzYMZfS_7s4qnp-17" value="" style="endArrow=classic;startArrow=classic;html=1;rounded=0;" edge="1" parent="1">
          <mxGeometry width="50" height="50" relative="1" as="geometry">
            <mxPoint x="240" y="850" as="sourcePoint" />
            <mxPoint x="240" y="690" as="targetPoint" />
          </mxGeometry>
        </mxCell>
      </root>
    </mxGraphModel>
  </diagram>
</mxfile>
